# xmcd
#
# Track frame offsets:
#	150
#	11721
#	25961
#	38660
#	47124
#	54550
#	66923
#	78707
#	96852
#	104536
#	117499
#	133403
#	143339
#
# Disc length: 2074 seconds
#
# Revision: 0
# Processed by: cddbd v1.5.2PL0 Copyright (c) Steve Scherf et al.
# Submitted via: EZCDAudioConverter 2.7.0.1
#
DISCID=b908180d
DTITLE=Jon Spencer Blues Explosion - Freedom Tower
DYEAR=2015
DGENRE=Blues Rock
TTITLE0=Funeral
TTITLE1=Wax Dummy
TTITLE2=Do The Get Down
TTITLE3=Betty Vs. The Nypd
TTITLE4=White Jesus
TTITLE5=Born Bad
TTITLE6=Down And Out
TTITLE7=Crossroad Hop
TTITLE8=The Ballad Of Joe Buck
TTITLE9=Dial Up Doll
TTITLE10=Bellevue Baby
TTITLE11=Tales Of Old New York: The Rock Box
TTITLE12=Cooking For Television
EXTD=
EXTT0=
EXTT1=
EXTT2=
EXTT3=
EXTT4=
EXTT5=
EXTT6=
EXTT7=
EXTT8=
EXTT9=
EXTT10=
EXTT11=
EXTT12=
PLAYORDER=
